<svg fill="none" height="32" viewBox="0 0 86 32" width="86" xmlns="http://www.w3.org/2000/svg">
  <rect fill="#FF6900" height="2" opacity="0.66" rx="1" width="2" y="15.0078"/>
  <rect fill="#FF6900" height="8" opacity="0.66" rx="1" width="2" x="6" y="12.0078"/>
  <rect fill="#FF6900" height="14" opacity="0.66" rx="1" width="2" x="12" y="9.00781"/>
  <rect fill="#FF6900" height="4" opacity="0.66" rx="1" width="2" x="18" y="14.0078"/>
  <rect fill="#FF6900" height="16" opacity="0.66" rx="1" width="2" x="24" y="8.00781"/>
  <rect fill="#FF6900" height="14" opacity="0.66" rx="1" width="2" x="30" y="9.00781"/>
  <rect fill="#4F4F4F" height="10" opacity="0.66" rx="1" width="2" x="36" y="11.0078"/>
  <rect fill="#4F4F4F" height="10" opacity="0.66" rx="1" width="2" x="42" y="11.0078"/>
  <rect fill="#4F4F4F" height="10" opacity="0.66" rx="1" width="2" x="48" y="11.0078"/>
  <rect fill="#4F4F4F" height="14" opacity="0.66" rx="1" width="2" x="54" y="9.00781"/>
  <rect fill="#4F4F4F" height="10" opacity="0.66" rx="1" width="2" x="60" y="11.0078"/>
  <rect fill="#4F4F4F" height="16" opacity="0.66" rx="1" width="2" x="66" y="8.00781"/>
  <rect fill="#4F4F4F" height="10" opacity="0.66" rx="1" width="2" x="72" y="11.0078"/>
  <rect fill="#4F4F4F" height="4" opacity="0.66" rx="1" width="2" x="78" y="14.0078"/>
  <rect fill="#4F4F4F" height="2" opacity="0.66" rx="1" width="2" x="84" y="15.0078"/>
</svg>
